<svg width="12" height="14" viewBox="0 0 12 14" fill="none" xmlns="http://www.w3.org/2000/svg">
<path d="M6.52892 0.528636C6.78927 0.268287 7.21138 0.268287 7.47173 0.528636L9.47173 2.52864C9.73208 2.78899 9.73208 3.2111 9.47173 3.47145L7.47173 5.47145C7.21138 5.73179 6.78927 5.73179 6.52892 5.47145C6.26857 5.2111 6.26857 4.78899 6.52892 4.52864L7.39085 3.66671H6.33366C3.96852 3.66671 2.00033 5.6349 2.00033 8.00004C2.00033 10.3652 3.96852 12.3334 6.33366 12.3334C8.6988 12.3334 10.667 10.3652 10.667 8.00004C10.667 7.63185 10.9655 7.33337 11.3337 7.33337C11.7018 7.33337 12.0003 7.63185 12.0003 8.00004C12.0003 11.1016 9.43518 13.6667 6.33366 13.6667C3.23214 13.6667 0.666992 11.1016 0.666992 8.00004C0.666992 4.89852 3.23214 2.33337 6.33366 2.33337H7.39085L6.52892 1.47145C6.26857 1.2111 6.26857 0.788986 6.52892 0.528636Z" fill="#0D0D0D"/>
</svg>
