<svg width="13" height="13" viewBox="0 0 13 13" fill="none" xmlns="http://www.w3.org/2000/svg">
<path d="M12.9174 6.75294C12.8012 6.91181 10.0341 10.6429 6.49994 10.6429C2.96578 10.6429 0.198504 6.91181 0.0824943 6.75309C-0.0274981 6.60237 -0.0274981 6.39795 0.0824943 6.24723C0.198504 6.08836 2.96578 2.35723 6.49994 2.35723C10.0341 2.35723 12.8012 6.08839 12.9174 6.24711C13.0275 6.3978 13.0275 6.60237 12.9174 6.75294ZM6.49994 3.21437C3.89666 3.21437 1.64194 5.6908 0.974494 6.50038C1.64108 7.31067 3.89107 9.78581 6.49994 9.78581C9.10309 9.78581 11.3577 7.30981 12.0254 6.49979C11.3588 5.68953 9.1088 3.21437 6.49994 3.21437Z" fill="#7D7D7D"/>
<path d="M6.50015 9.07129C5.08229 9.07129 3.92871 7.91772 3.92871 6.49985C3.92871 5.08198 5.08229 3.92841 6.50015 3.92841C7.91802 3.92841 9.07159 5.08198 9.07159 6.49985C9.07159 7.91772 7.91802 9.07129 6.50015 9.07129ZM6.50015 4.78557C5.55486 4.78557 4.78587 5.55458 4.78587 6.49985C4.78587 7.44512 5.55488 8.21413 6.50015 8.21413C7.44542 8.21413 8.21443 7.44512 8.21443 6.49985C8.21443 5.55458 7.44545 4.78557 6.50015 4.78557Z" fill="#7D7D7D"/>
</svg>
